<?xml version="1.0" encoding="iso-8859-1"?><!-- Generator: Adobe Illustrator 19.0.0, SVG Export Plug-In . SVG Version: 6.00 Build 0)  -->
<svg version="1.1" id="Capa_1" xmlns="http://www.w3.org/2000/svg" x="0px" y="0px" viewBox="0 0 512 512"
    style="enable-background:new 0 0 512 512;" xml:space="preserve">
<g>
	<g>
		<path d="M383.841,171.838c-7.881-8.31-21.02-8.676-29.343-0.775L221.987,296.732l-63.204-64.893
			c-8.005-8.213-21.13-8.393-29.35-0.387c-8.213,7.998-8.386,21.137-0.388,29.35l77.492,79.561
			c4.061,4.172,9.458,6.275,14.869,6.275c5.134,0,10.268-1.896,14.288-5.694l147.373-139.762
			C391.383,193.294,391.735,180.155,383.841,171.838z" fill="#ACACAC" />
	</g>
</g>
    <g>
	<g>
		<path d="M256,0C114.84,0,0,114.84,0,256s114.84,256,256,256s256-114.84,256-256S397.16,0,256,0z M256,470.487
			c-118.265,0-214.487-96.214-214.487-214.487c0-118.265,96.221-214.487,214.487-214.487c118.272,0,214.487,96.221,214.487,214.487
			C470.487,374.272,374.272,470.487,256,470.487z" fill="#ACACAC" />
	</g>
</g>
    <g>
</g>
    <g>
</g>
    <g>
</g>
    <g>
</g>
    <g>
</g>
    <g>
</g>
    <g>
</g>
    <g>
</g>
    <g>
</g>
    <g>
</g>
    <g>
</g>
    <g>
</g>
    <g>
</g>
    <g>
</g>
    <g>
</g>
</svg>
