<!-- LinShare is an open source filesharing software, part of the LinPKI software
suite, developed by Linagora.

Copyright (C) 2020 LINAGORA

This program is free software: you can redistribute it and/or modify it under the
terms of the GNU Affero General Public License as published by the Free Software
Foundation, either version 3 of the License, or (at your option) any later version,
provided you comply with the Additional Terms applicable for LinShare software by
Linagora pursuant to Section 7 of the GNU Affero General Public License,
subsections (b), (c), and (e), pursuant to which you must notably (i) retain the
display in the interface of the “LinShare™” trademark/logo, the "Libre & Free" mention,
the words “You are using the Free and Open Source version of LinShare™, powered by
Linagora © 2009–2020. Contribute to Linshare R&D by subscribing to an Enterprise
offer!”. You must also retain the latter notice in all asynchronous messages such as
e-mails sent with the Program, (ii) retain all hypertext links between LinShare and
http://www.linshare.org, between linagora.com and Linagora, and (iii) refrain from
infringing Linagora intellectual property rights over its trademarks and commercial
brands. Other Additional Terms apply, see
<http://www.linshare.org/licenses/LinShare-License_AfferoGPL-v3.pdf>
for more details.
This program is distributed in the hope that it will be useful, but WITHOUT ANY
WARRANTY; without even the implied warranty of MERCHANTABILITY or FITNESS
FOR A PARTICULAR PURPOSE. See the GNU Affero General Public License for
more details.
You should have received a copy of the GNU Affero General Public License and its
applicable Additional Terms for LinShare along with this program. If not, see
<http://www.gnu.org/licenses/> for the GNU Affero General Public License version
3 and <http://www.linshare.org/licenses/LinShare-License_AfferoGPL-v3.pdf> for
the Additional Terms applicable to LinShare software. -->

<svg id="Layer_1" xmlns="http://www.w3.org/2000/svg" viewBox="0 0 140 140">
    <defs>
        <style>.cls-1{fill:#1B7EC7;}</style>
    </defs>
    <title>IDKits_20</title>
    <path class="cls-1"
        d="M81.06,62.84h0a1.5,1.5,0,0,1-1.47-1.53,26.74,26.74,0,0,1,2.06-9A18.63,18.63,0,0,1,95.28,40.73c.48-.11,12-2.53,18.52,4.12a1.51,1.51,0,0,1,0,2.12,1.49,1.49,0,0,1-2.12,0c-5.31-5.45-15.64-3.3-15.74-3.28-5.36,1.14-9.22,4.42-11.49,9.74a24.23,24.23,0,0,0-1.86,8A1.5,1.5,0,0,1,81.06,62.84Z" />
    <path class="cls-1"
        d="M93.05,81.26a1.54,1.54,0,0,1-1-.41A1.51,1.51,0,0,1,92,78.73c.07-.08,6.82-7.24,6.13-14.4a1.5,1.5,0,1,1,3-.29c.82,8.54-6.63,16.43-7,16.76A1.48,1.48,0,0,1,93.05,81.26Z" />
    <path class="cls-1"
        d="M84.06,72.17A1.5,1.5,0,0,1,83,69.63c2.31-2.4,2.4-5.21,2.46-7.08v-.38a12.67,12.67,0,0,1,1.64-5,1.5,1.5,0,0,1,2.6,1.49,9.83,9.83,0,0,0-1.24,3.64v.36a12.8,12.8,0,0,1-3.3,9.07A1.48,1.48,0,0,1,84.06,72.17Z" />
    <path class="cls-1"
        d="M102.5,90.34a5.06,5.06,0,0,1-2.7-.79,5,5,0,0,1-1.47-7c5.78-8.7,6-10.63,6.35-18.31a5.35,5.35,0,0,0-2.23-5,5.09,5.09,0,0,0-5.11-.32c-1.78.92-2.59,2.8-2.42,5.6.53,8.92-9.24,18.11-9.66,18.5a1.5,1.5,0,0,1-2-2.2c.09-.08,9.15-8.62,8.7-16.12-.3-5.1,2-7.4,4-8.44a8.1,8.1,0,0,1,8.16.5,8.22,8.22,0,0,1,3.56,7.6c-.32,8.05-.66,10.54-6.85,19.86a2,2,0,0,0-.3,1.55,2,2,0,0,0,3.62.76c2.82-4,9.25-14.19,8.25-23.41a21.84,21.84,0,0,0-2.28-7.7,9.78,9.78,0,0,0-7-5.3,10.89,10.89,0,0,0-10,3.82,1.51,1.51,0,0,1-2.1.29,1.49,1.49,0,0,1-.3-2.09,13.9,13.9,0,0,1,12.86-5A12.75,12.75,0,0,1,112.77,54a24.47,24.47,0,0,1,2.61,8.76c1.07,9.88-5,20.2-8.78,25.47A5,5,0,0,1,102.5,90.34Z" />
    <path class="cls-1"
        d="M40.46,88.89c-4.05,0-8.28-2.5-11.6-6.85A22.59,22.59,0,0,1,24,69V64.43A1.51,1.51,0,0,1,25.06,63c.05,0,5.71-1.8,8.59-5.24,1-1.14,2.09-.25,2.78.28,6.11,4.71,12,7.29,17.49,7.69a1.5,1.5,0,0,1,3,.1V69a22.56,22.56,0,0,1-4.86,13C48.74,86.39,44.51,88.89,40.46,88.89ZM27,65.49V69c0,7.21,6.65,16.87,13.46,16.87S53.92,76.23,53.92,69v-.29c-6.05-.39-12.41-3.08-18.93-8A24.33,24.33,0,0,1,27,65.49Z" />
    <path class="cls-1"
        d="M58.26,85.29H48.89a1.5,1.5,0,0,1,0-3h9.37a.59.59,0,0,0,.58-.59v-17c0-7.68-1.75-13.23-5.19-16.48a10.23,10.23,0,0,0-7-2.94h-.15l-.62,0c-5.88,0-8,2.3-8.06,2.4a1.5,1.5,0,0,1-2.1.16,1.48,1.48,0,0,1-.2-2.08c.29-.36,3.06-3.48,10.36-3.48l.69,0a13.41,13.41,0,0,1,9.15,3.76c4.07,3.84,6.13,10.12,6.13,18.66v17A3.59,3.59,0,0,1,58.26,85.29Z" />
    <path class="cls-1"
        d="M31.73,85.29H22.36a3.59,3.59,0,0,1-3.58-3.59v-17c0-14.36,7.35-19.45,11.74-21.21a1.5,1.5,0,1,1,1.11,2.78c-3.68,1.48-9.85,5.84-9.85,18.43v17a.59.59,0,0,0,.58.59h9.37a1.5,1.5,0,0,1,0,3Z" />
    <path class="cls-1"
        d="M29.13,40.22a1.5,1.5,0,0,1-1.5-1.5V25.62a1.5,1.5,0,0,1,1.5-1.5H46.24a1.5,1.5,0,0,1,0,3H30.63v11.6A1.5,1.5,0,0,1,29.13,40.22Z" />
    <path class="cls-1"
        d="M46.24,108.76H29.13a1.5,1.5,0,0,1-1.5-1.5V94.16a1.5,1.5,0,0,1,3,0v11.6H46.24a1.5,1.5,0,0,1,0,3Z" />
    <path class="cls-1"
        d="M110.78,108.76H93.68a1.5,1.5,0,0,1,0-3h15.6V94.16a1.5,1.5,0,0,1,3,0v13.1A1.5,1.5,0,0,1,110.78,108.76Z" />
    <path class="cls-1"
        d="M110.78,35.22a1.5,1.5,0,0,1-1.5-1.5v-6.6H93.68a1.5,1.5,0,0,1,0-3h17.1a1.5,1.5,0,0,1,1.5,1.5v8.1A1.5,1.5,0,0,1,110.78,35.22Z" />
    <path class="cls-1"
        d="M114.92,85.29a1.56,1.56,0,0,1-.69-.17,1.5,1.5,0,0,1-.63-2c8.78-16.85,2.26-29.86,2.19-30a1.5,1.5,0,1,1,2.67-1.37c.3.58,7.29,14.53-2.2,32.75A1.51,1.51,0,0,1,114.92,85.29Z" />
</svg>