<svg width="24" height="24" viewBox="0 0 24 24" fill="none" xmlns="http://www.w3.org/2000/svg">
<path d="M13.7787 9.4271L12.7015 11.293C14.1856 12.1837 14.9697 13.6034 14.239 14.907L12.0843 18.5386C11.2438 19.822 9.4776 20.215 8.04841 19.3344C6.56429 18.4437 5.99444 16.6943 6.72506 15.3906L7.56904 13.9317L5.76431 12.879L4.74024 14.6498C3.48893 16.7821 4.45849 19.6844 6.8954 21.1621C9.38726 22.6501 12.4072 21.9748 13.654 19.8931L13.7089 19.9032L15.9888 15.9496C16.587 14.8784 16.6449 13.6045 16.2497 12.4012C15.8499 11.2484 14.9972 10.166 13.7787 9.4271Z" fill="#ACACAC"/>
<path opacity="0.7" d="M17.0893 2.78542C14.5975 1.29748 11.5775 1.9727 10.3307 4.05446L8.05083 8.00811C6.79952 10.1404 7.82402 13.0528 10.206 14.5204L11.3138 12.6016C9.77477 11.7007 9.22745 9.99277 9.95807 8.6891L11.9689 5.20616L11.9735 5.15561C12.7748 3.76765 14.5802 3.47922 16.0094 4.3598C17.4935 5.25053 18.1183 7.0101 17.3372 8.25307L16.4674 9.84381L18.2768 10.8885L19.2535 9.19665C19.8517 8.12543 19.9645 6.86176 19.5098 5.6988C19.156 4.65722 18.3078 3.52431 17.0893 2.78542Z" fill="#ACACAC"/>
</svg>
