<svg width="24" height="24" viewBox="0 0 24 24" fill="none" xmlns="http://www.w3.org/2000/svg">
<path d="M7.33333 12C7.33333 10.8933 6.43999 10 5.33333 10C4.22666 10 3.33333 10.8933 3.33333 12C3.33333 13.1067 4.22666 14 5.33333 14C6.43999 14 7.33333 13.1067 7.33333 12ZM9.99999 12C9.99999 13.1067 10.8933 14 12 14C13.1067 14 14 13.1067 14 12C14 10.8933 13.1067 10 12 10C10.8933 10 9.99999 10.8933 9.99999 12ZM16.6667 12C16.6667 13.1067 17.56 14 18.6667 14C19.7733 14 20.6667 13.1067 20.6667 12C20.6667 10.8933 19.7733 10 18.6667 10C17.56 10 16.6667 10.8933 16.6667 12Z" fill="#4AC6FF"/>
</svg>
