<svg width="24" height="25" viewBox="0 0 24 25" fill="none" xmlns="http://www.w3.org/2000/svg">
<g clip-path="url(#clip0_3388_82699)">
<path fill-rule="evenodd" clip-rule="evenodd" d="M22.5 18.1782V9.17822C22.5 8.7804 22.342 8.39887 22.0607 8.11756C21.7794 7.83626 21.3978 7.67822 21 7.67822H19.242C18.0491 7.67757 16.9053 7.20333 16.062 6.35972L14.817 5.11772C14.5365 4.83713 14.1563 4.6791 13.7595 4.67822H10.242C9.84421 4.67831 9.46274 4.8364 9.1815 5.11772L7.9395 6.35972C7.09578 7.20369 5.95138 7.67797 4.758 7.67822H3C2.60218 7.67822 2.22064 7.83626 1.93934 8.11756C1.65804 8.39887 1.5 8.7804 1.5 9.17822V18.1782C1.5 18.576 1.65804 18.9576 1.93934 19.2389C2.22064 19.5202 2.60218 19.6782 3 19.6782H21C21.3978 19.6782 21.7794 19.5202 22.0607 19.2389C22.342 18.9576 22.5 18.576 22.5 18.1782ZM3 6.17822C2.20435 6.17822 1.44129 6.49429 0.87868 7.0569C0.316071 7.61951 0 8.38257 0 9.17822L0 18.1782C0 18.9739 0.316071 19.7369 0.87868 20.2995C1.44129 20.8622 2.20435 21.1782 3 21.1782H21C21.7956 21.1782 22.5587 20.8622 23.1213 20.2995C23.6839 19.7369 24 18.9739 24 18.1782V9.17822C24 8.38257 23.6839 7.61951 23.1213 7.0569C22.5587 6.49429 21.7956 6.17822 21 6.17822H19.242C18.4464 6.17805 17.6835 5.86187 17.121 5.29922L15.879 4.05722C15.3165 3.49457 14.5536 3.17839 13.758 3.17822H10.242C9.44642 3.17839 8.68348 3.49457 8.121 4.05722L6.879 5.29922C6.31652 5.86187 5.55358 6.17805 4.758 6.17822H3Z" fill="#2997FF"/>
<path fill-rule="evenodd" clip-rule="evenodd" d="M12 16.6782C12.9946 16.6782 13.9484 16.2831 14.6517 15.5799C15.3549 14.8766 15.75 13.9228 15.75 12.9282C15.75 11.9337 15.3549 10.9798 14.6517 10.2766C13.9484 9.57331 12.9946 9.17822 12 9.17822C11.0054 9.17822 10.0516 9.57331 9.34835 10.2766C8.64509 10.9798 8.25 11.9337 8.25 12.9282C8.25 13.9228 8.64509 14.8766 9.34835 15.5799C10.0516 16.2831 11.0054 16.6782 12 16.6782ZM12 18.1782C13.3924 18.1782 14.7277 17.6251 15.7123 16.6405C16.6969 15.656 17.25 14.3206 17.25 12.9282C17.25 11.5358 16.6969 10.2005 15.7123 9.21591C14.7277 8.23135 13.3924 7.67822 12 7.67822C10.6076 7.67822 9.27226 8.23135 8.28769 9.21591C7.30312 10.2005 6.75 11.5358 6.75 12.9282C6.75 14.3206 7.30312 15.656 8.28769 16.6405C9.27226 17.6251 10.6076 18.1782 12 18.1782Z" fill="#2997FF"/>
<path d="M4.5 9.92822C4.5 10.1271 4.42098 10.3179 4.28033 10.4586C4.13968 10.5992 3.94891 10.6782 3.75 10.6782C3.55109 10.6782 3.36032 10.5992 3.21967 10.4586C3.07902 10.3179 3 10.1271 3 9.92822C3 9.72931 3.07902 9.53854 3.21967 9.39789C3.36032 9.25724 3.55109 9.17822 3.75 9.17822C3.94891 9.17822 4.13968 9.25724 4.28033 9.39789C4.42098 9.53854 4.5 9.72931 4.5 9.92822Z" fill="#2997FF"/>
</g>
<defs>
<clipPath id="clip0_3388_82699">
<rect width="24" height="24" fill="white" transform="translate(0 0.178223)"/>
</clipPath>
</defs>
</svg>
