<svg width="120" height="120" viewBox="0 0 120 120" fill="none" xmlns="http://www.w3.org/2000/svg">
<path d="M97.5 120H22.5C10.0781 120 0 109.922 0 97.5V22.5C0 10.0781 10.0781 0 22.5 0H97.5C109.922 0 120 10.0781 120 22.5V97.5C120 109.922 109.922 120 97.5 120Z" fill="#F2F2F2"/>
<g clip-path="url(#clip0)">
<path d="M82.2222 35.5111H37.7778C35.6445 35.5111 34.0445 37.2889 34.2222 39.2444L35.8222 76.2222C35.8222 78.1778 37.4222 79.6 39.3778 79.6H49.8667L59.8222 88.4889L69.7778 79.6H80.8C82.7556 79.6 84.3556 78.1778 84.3556 76.2222L85.9556 39.0667C85.9556 37.1111 84.3556 35.5111 82.2222 35.5111ZM64.2667 42.4444C64.6222 42.6222 64.8 42.8 64.9778 42.9778L72.4445 50.4444C72.6222 50.6222 72.8 50.8 72.9778 51.1556H64.4445V42.4444H64.2667ZM72.8 70.7111C72.8 71.0667 72.8 71.4222 72.4445 71.7778C72.2667 71.9556 71.7333 72.1333 71.3778 72.1333H48.9778C48.6222 72.1333 48.2667 72.1333 47.9111 71.7778C47.7333 71.6 47.5556 71.0667 47.5556 70.7111V44.0444C47.5556 43.6889 47.5556 43.3333 47.9111 42.9778C47.9111 42.6222 48.4445 42.4444 48.8 42.4444H62.1333V51.5111C62.1333 51.8667 62.1333 52.2222 62.4889 52.5778C62.6667 52.7556 63.2 52.9333 63.5556 52.9333H72.6222V64.1333L72.8 70.7111Z" fill="#D3D3D3"/>
</g>
<defs>
<clipPath id="clip0">
<rect width="64" height="64" fill="white" transform="translate(28 30)"/>
</clipPath>
</defs>
</svg>
