<svg width="24" height="25" viewBox="0 0 24 25" fill="none" xmlns="http://www.w3.org/2000/svg">
<path fill-rule="evenodd" clip-rule="evenodd" d="M14.7417 6.17822H3.28474C3.07636 6.17821 2.87028 6.22161 2.67961 6.30566C2.48894 6.38971 2.31787 6.51256 2.17732 6.66639C2.03676 6.82021 1.92979 7.00163 1.86323 7.19909C1.79667 7.39654 1.77198 7.6057 1.79074 7.81322L2.74624 18.3132C2.77991 18.6859 2.95168 19.0326 3.22782 19.2851C3.50396 19.5377 3.86453 19.6779 4.23874 19.6782H13.4997V21.1782H4.23874C3.49029 21.1779 2.76899 20.8979 2.21643 20.3931C1.66387 19.8882 1.31997 19.1951 1.25224 18.4497L0.296736 7.94972C0.232815 7.2549 0.414327 6.55963 0.809736 5.98472L0.749736 4.67822C0.749736 3.88257 1.06581 3.11951 1.62842 2.5569C2.19102 1.99429 2.95409 1.67822 3.74974 1.67822H9.25774C10.0533 1.67839 10.8163 1.99457 11.3787 2.55722L12.6207 3.79922C13.1832 4.36187 13.9462 4.67805 14.7417 4.67822H20.7147C21.1316 4.67818 21.5439 4.76502 21.9254 4.93321C22.3068 5.1014 22.649 5.34724 22.9302 5.65505C23.2113 5.96287 23.4252 6.3259 23.5582 6.72099C23.6912 7.11608 23.7405 7.53455 23.7027 7.94972L23.3187 12.1782H21.8097L22.2072 7.81322C22.226 7.60582 22.2013 7.39679 22.1349 7.19944C22.0684 7.00209 21.9616 6.82074 21.8212 6.66694C21.6808 6.51314 21.5099 6.39025 21.3194 6.30611C21.1289 6.22197 20.923 6.17842 20.7147 6.17822H14.7417ZM10.3167 3.61772L11.3802 4.67822H3.28474C2.92474 4.67822 2.57974 4.74122 2.25874 4.85822L2.24974 4.64822C2.25759 4.25562 2.41909 3.88175 2.69954 3.6069C2.98 3.33205 3.35705 3.17814 3.74974 3.17822H9.25774C9.65553 3.17831 10.037 3.3364 10.3182 3.61772H10.3167Z" fill="#2997FF"/>
<path fill-rule="evenodd" clip-rule="evenodd" d="M20.25 15.1782C20.4489 15.1782 20.6397 15.2572 20.7803 15.3979C20.921 15.5385 21 15.7293 21 15.9282V18.1782H23.25C23.4489 18.1782 23.6397 18.2572 23.7803 18.3979C23.921 18.5385 24 18.7293 24 18.9282C24 19.1271 23.921 19.3179 23.7803 19.4586C23.6397 19.5992 23.4489 19.6782 23.25 19.6782H21V21.9282C21 22.1271 20.921 22.3179 20.7803 22.4586C20.6397 22.5992 20.4489 22.6782 20.25 22.6782C20.0511 22.6782 19.8603 22.5992 19.7197 22.4586C19.579 22.3179 19.5 22.1271 19.5 21.9282V19.6782H17.25C17.0511 19.6782 16.8603 19.5992 16.7197 19.4586C16.579 19.3179 16.5 19.1271 16.5 18.9282C16.5 18.7293 16.579 18.5385 16.7197 18.3979C16.8603 18.2572 17.0511 18.1782 17.25 18.1782H19.5V15.9282C19.5 15.7293 19.579 15.5385 19.7197 15.3979C19.8603 15.2572 20.0511 15.1782 20.25 15.1782Z" fill="#2997FF"/>
</svg>
