<svg width="335" height="263" viewBox="0 0 335 263" fill="none" xmlns="http://www.w3.org/2000/svg">
<path opacity="0.4" d="M104.174 161.049H247.831C264.591 161.049 278.074 145.105 278.074 125.287V35.8812C278.074 16.0629 264.591 0.118805 247.831 0.118805H104.174C87.4142 0.118805 73.9307 16.0629 73.9307 35.8812V125.287C73.9307 144.956 87.4142 161.049 104.174 161.049Z" fill="#5A9EFF"/>
<path opacity="0.7" d="M108.369 174.46H271.948C291.033 174.46 306.386 158.516 306.386 138.698V49.2921C306.386 29.4738 291.033 13.5297 271.948 13.5297H108.369C89.2842 13.5297 73.9307 29.4738 73.9307 49.2921V138.698C73.9307 158.367 89.2842 174.46 108.369 174.46Z" fill="#5A9EFF"/>
<path d="M167.807 262.389H38.9283C16.0404 262.389 0.915894 247.25 0.915894 224.362C0.915894 162.274 0.915894 100.187 0.915894 38.0995C0.915894 15.2413 16.0702 0.131737 38.973 0.131737C57.5993 0.131737 76.2255 0.131737 94.8517 0.131737C99.8268 -0.000202678 104.777 0.878629 109.403 2.71505C114.028 4.55146 118.233 7.30728 121.763 10.8157C127.545 16.4483 133.266 22.1405 139.257 27.5496C140.865 28.9445 142.896 29.7579 145.023 29.8592C195.935 29.9784 246.847 30.0132 297.758 29.9635C317.04 29.9635 331.494 42.3611 334.385 61.2556C334.654 63.3503 334.758 65.4627 334.698 67.5736C334.698 119.985 334.698 172.387 334.698 224.779C334.698 247.131 319.454 262.434 297.073 262.434L167.807 262.389Z" fill="#5A9EFF"/>
</svg>
