<svg width="101" height="92" viewBox="0 0 101 92" fill="none" xmlns="http://www.w3.org/2000/svg">
<path d="M1 88.0065C1 88.0065 18.2578 95.0465 29.8475 86.9897C46.0606 75.7219 42.903 55.9201 38.2367 52.4549C33.5704 48.9897 27.9218 54.9267 33.9719 60.5899C39.8779 66.1163 50.4696 65.9794 55.631 57.3085C60.7923 48.6377 56.5549 38.0426 68.6981 33.889" stroke="#004DFF" stroke-width="2" stroke-linecap="round" stroke-dasharray="4"/>
<path d="M72.4813 25.5309L68.8032 23.7743L65.6979 31.4426C65.6882 31.4668 65.6789 31.4913 65.6708 31.5158C65.2764 32.699 65.3641 33.7742 65.9182 34.5424C66.3984 35.209 67.1704 35.5763 68.0921 35.5763H68.0924C68.5288 35.5763 68.9977 35.4938 69.4859 35.3309C69.5108 35.3228 69.5353 35.3138 69.5591 35.3041L77.2274 32.1988L75.4711 28.5204C75.0012 27.5372 73.4646 26.0005 72.4813 25.5309Z" fill="#005BEA"/>
<path d="M100.897 1.85889L76.751 26.0047C77.1518 26.4985 77.4856 26.9983 77.7049 27.4569L83.8339 40.2909C84.6573 42.015 85.7428 42.2723 86.3162 42.2723H86.3165C86.8289 42.2723 88.0947 42.0495 88.7833 39.9842L100.757 4.06249C101.025 3.2569 101.07 2.50162 100.897 1.85889V1.85889Z" fill="#005BEA"/>
<path d="M75.0006 24.2513L99.1478 0.104166C98.8946 0.0354745 98.6231 0 98.337 0C97.9 0 97.4311 0.0825587 96.9429 0.245419L61.0214 12.219C59.121 12.8527 58.7746 13.9589 58.7372 14.5616C58.6998 15.1647 58.9072 16.305 60.7148 17.168L73.5488 23.2974C74.007 23.5166 74.5069 23.8504 75.0006 24.2513Z" fill="#005BEA"/>
</svg>
