<!-- LinShare is an open source filesharing software, part of the LinPKI software
suite, developed by Linagora.

Copyright (C) 2020 LINAGORA

This program is free software: you can redistribute it and/or modify it under the
terms of the GNU Affero General Public License as published by the Free Software
Foundation, either version 3 of the License, or (at your option) any later version,
provided you comply with the Additional Terms applicable for LinShare software by
Linagora pursuant to Section 7 of the GNU Affero General Public License,
subsections (b), (c), and (e), pursuant to which you must notably (i) retain the
display in the interface of the “LinShare™” trademark/logo, the "Libre & Free" mention,
the words “You are using the Free and Open Source version of LinShare™, powered by
Linagora © 2009–2020. Contribute to Linshare R&D by subscribing to an Enterprise
offer!”. You must also retain the latter notice in all asynchronous messages such as
e-mails sent with the Program, (ii) retain all hypertext links between LinShare and
http://www.linshare.org, between linagora.com and Linagora, and (iii) refrain from
infringing Linagora intellectual property rights over its trademarks and commercial
brands. Other Additional Terms apply, see
<http://www.linshare.org/licenses/LinShare-License_AfferoGPL-v3.pdf>
for more details.
This program is distributed in the hope that it will be useful, but WITHOUT ANY
WARRANTY; without even the implied warranty of MERCHANTABILITY or FITNESS
FOR A PARTICULAR PURPOSE. See the GNU Affero General Public License for
more details.
You should have received a copy of the GNU Affero General Public License and its
applicable Additional Terms for LinShare along with this program. If not, see
<http://www.gnu.org/licenses/> for the GNU Affero General Public License version
3 and <http://www.linshare.org/licenses/LinShare-License_AfferoGPL-v3.pdf> for
the Additional Terms applicable to LinShare software. -->

<svg width="20" height="20" viewBox="0 0 20 20" fill="none" xmlns="http://www.w3.org/2000/svg">
<path d="M12 0H4C2.9 0 2 0.9 2 2V18C2 19.1 2.9 20 4 20H16C17.1 20 18 19.1 18 18V6L12 0ZM14.7 16.3C14.7 16.8 14.3 17.1 13.9 17.1H6.2C5.7 17.1 5.4 16.7 5.4 16.3V10.4C5.4 9.9 5.8 9.6 6.2 9.6H13.8C14.3 9.6 14.6 10 14.6 10.4V16.3H14.7ZM11 7V1.5L16.5 7H11Z" fill="#FFAB00"/>
<path d="M13.8 10.3999H6.19998V15.0999H13.8V10.3999Z" fill="#FFAB00"/>
</svg>
