<!-- LinShare is an open source filesharing software, part of the LinPKI software
suite, developed by Linagora.

Copyright (C) 2020 LINAGORA

This program is free software: you can redistribute it and/or modify it under the
terms of the GNU Affero General Public License as published by the Free Software
Foundation, either version 3 of the License, or (at your option) any later version,
provided you comply with the Additional Terms applicable for LinShare software by
Linagora pursuant to Section 7 of the GNU Affero General Public License,
subsections (b), (c), and (e), pursuant to which you must notably (i) retain the
display in the interface of the “LinShare™” trademark/logo, the "Libre & Free" mention,
the words “You are using the Free and Open Source version of LinShare™, powered by
Linagora © 2009–2020. Contribute to Linshare R&D by subscribing to an Enterprise
offer!”. You must also retain the latter notice in all asynchronous messages such as
e-mails sent with the Program, (ii) retain all hypertext links between LinShare and
http://www.linshare.org, between linagora.com and Linagora, and (iii) refrain from
infringing Linagora intellectual property rights over its trademarks and commercial
brands. Other Additional Terms apply, see
<http://www.linshare.org/licenses/LinShare-License_AfferoGPL-v3.pdf>
for more details.
This program is distributed in the hope that it will be useful, but WITHOUT ANY
WARRANTY; without even the implied warranty of MERCHANTABILITY or FITNESS
FOR A PARTICULAR PURPOSE. See the GNU Affero General Public License for
more details.
You should have received a copy of the GNU Affero General Public License and its
applicable Additional Terms for LinShare along with this program. If not, see
<http://www.gnu.org/licenses/> for the GNU Affero General Public License version
3 and <http://www.linshare.org/licenses/LinShare-License_AfferoGPL-v3.pdf> for
the Additional Terms applicable to LinShare software. -->

<svg id="Layer_1" xmlns="http://www.w3.org/2000/svg" viewBox="0 0 140 140">
    <defs>
        <style>.cls-1{fill:#1B7EC7;}</style>
    </defs>
    <title>Fingeprint_reco0</title>
    <path class="cls-1"
        d="M29.18,47.78a1.5,1.5,0,0,1-1.5-1.5V29.18a1.5,1.5,0,0,1,1.5-1.5h17.1a1.5,1.5,0,0,1,0,3H30.68v15.6A1.5,1.5,0,0,1,29.18,47.78Z" />
    <path class="cls-1"
        d="M46.28,112.32H29.18a1.5,1.5,0,0,1-1.5-1.5V93.72a1.5,1.5,0,0,1,3,0v15.6h15.6a1.5,1.5,0,0,1,0,3Z" />
    <path class="cls-1"
        d="M110.82,112.32H93.72a1.5,1.5,0,0,1,0-3h15.6V93.72a1.5,1.5,0,0,1,3,0v17.1A1.5,1.5,0,0,1,110.82,112.32Z" />
    <path class="cls-1"
        d="M110.82,47.78a1.5,1.5,0,0,1-1.5-1.5V30.68H93.72a1.5,1.5,0,0,1,0-3h17.1a1.5,1.5,0,0,1,1.5,1.5v17.1A1.5,1.5,0,0,1,110.82,47.78Z" />
    <path class="cls-1"
        d="M42.16,72.78a1.5,1.5,0,0,1-1.49-1.4c0-.24-1.4-24.24,23.53-29.55a1.5,1.5,0,1,1,.62,2.93C42.48,49.52,43.6,70.3,43.66,71.18a1.49,1.49,0,0,1-1.39,1.59Z" />
    <path class="cls-1"
        d="M84.37,97.87a5.49,5.49,0,0,1-2.2-.46,5.14,5.14,0,0,1-2.82-6.81c2.34-5.86,5.25-13.16,3.8-23.66a1.5,1.5,0,1,1,3-.41c1.56,11.29-1.51,19-4,25.18a2.16,2.16,0,0,0,1.22,3,2.11,2.11,0,0,0,2.92-1.1l.08-.18c6.17-13.9,7-24.75,2.62-32.26-5.27-8.93-16.55-10-16.67-10a1.5,1.5,0,0,1,.26-3c.52,0,12.9,1.21,19,11.47,5,8.39,4.14,20.17-2.44,35l-.11.23A5,5,0,0,1,84.37,97.87Z" />
    <path class="cls-1"
        d="M59.68,98.77a1.48,1.48,0,0,1-1-.42,1.5,1.5,0,0,1,0-2.12c.12-.12,11.81-12.52,10.6-25.07a1.5,1.5,0,1,1,3-.29C73.53,84.8,61.29,97.76,60.77,98.3A1.51,1.51,0,0,1,59.68,98.77Z" />
    <path class="cls-1"
        d="M68.11,100.43a1.5,1.5,0,0,1-1.25-2.32C75.57,84.65,76,82.82,76.33,72.56c.1-2.82-.78-4.92-2.63-6.24a5.6,5.6,0,0,0-5.89-.39c-2.1,1.14-3.06,3.49-2.86,7,.59,10.46-10.33,21.33-10.79,21.79a1.5,1.5,0,0,1-2.11-2.14c.11-.1,10.42-10.38,9.9-19.48-.33-5.9,2.22-8.57,4.42-9.77a8.62,8.62,0,0,1,9.07.58c1.87,1.34,4.07,3.95,3.89,8.79-.4,10.84-1,13.31-10,27.07A1.5,1.5,0,0,1,68.11,100.43Z" />
    <path class="cls-1"
        d="M80.88,62.38a1.48,1.48,0,0,1-1.07-.45c-4.49-4.61-12.18-3.61-12.26-3.6a1.5,1.5,0,0,1-.42-3c.37,0,9.26-1.24,14.83,4.47a1.51,1.51,0,0,1,0,2.12A1.48,1.48,0,0,1,80.88,62.38Z" />
    <path class="cls-1"
        d="M47.86,90A1.51,1.51,0,0,1,46.8,87.4c7.11-7.1,7.37-10,7.79-14.84.12-1.4.26-3,.58-4.82.59-3.35,3.89-7.45,4.27-7.91a1.5,1.5,0,1,1,2.31,1.91c-.87,1.07-3.24,4.34-3.63,6.52-.3,1.71-.42,3.16-.55,4.56-.44,5.12-.76,8.83-8.64,16.71A1.53,1.53,0,0,1,47.86,90Z" />
    <path class="cls-1"
        d="M55.34,57.41A1.5,1.5,0,0,1,54.16,55c4.46-5.65,12.07-6.6,12.39-6.64a1.5,1.5,0,1,1,.35,3c-.08,0-6.71.87-10.38,5.52A1.47,1.47,0,0,1,55.34,57.41Z" />
    <path class="cls-1"
        d="M44.53,83.44a1.5,1.5,0,0,1-1.08-2.54c4.17-4.32,4.33-9.31,4.43-12.61l0-.63c.13-3.62,2.53-7.82,2.63-8a1.5,1.5,0,1,1,2.6,1.49S51,64.9,50.9,67.77l0,.61c-.11,3.54-.3,9.45-5.27,14.6A1.46,1.46,0,0,1,44.53,83.44Z" />
    <path class="cls-1"
        d="M86.7,49a1.49,1.49,0,0,1-.92-.32,21.19,21.19,0,0,0-7.58-3.8A1.5,1.5,0,1,1,78.8,42a23.46,23.46,0,0,1,8.82,4.36,1.51,1.51,0,0,1,.26,2.11A1.49,1.49,0,0,1,86.7,49Z" />
    <path class="cls-1"
        d="M99.3,72.52h0A1.51,1.51,0,0,1,97.8,71c.09-12.86-8.08-19.19-8.16-19.25a1.5,1.5,0,0,1,1.81-2.4c.39.3,9.45,7.32,9.35,21.67A1.5,1.5,0,0,1,99.3,72.52Z" />
</svg>