<!-- LinShare is an open source filesharing software, part of the LinPKI software
suite, developed by Linagora.

Copyright (C) 2020 LINAGORA

This program is free software: you can redistribute it and/or modify it under the
terms of the GNU Affero General Public License as published by the Free Software
Foundation, either version 3 of the License, or (at your option) any later version,
provided you comply with the Additional Terms applicable for LinShare software by
Linagora pursuant to Section 7 of the GNU Affero General Public License,
subsections (b), (c), and (e), pursuant to which you must notably (i) retain the
display in the interface of the “LinShare™” trademark/logo, the "Libre & Free" mention,
the words “You are using the Free and Open Source version of LinShare™, powered by
Linagora © 2009–2020. Contribute to Linshare R&D by subscribing to an Enterprise
offer!”. You must also retain the latter notice in all asynchronous messages such as
e-mails sent with the Program, (ii) retain all hypertext links between LinShare and
http://www.linshare.org, between linagora.com and Linagora, and (iii) refrain from
infringing Linagora intellectual property rights over its trademarks and commercial
brands. Other Additional Terms apply, see
<http://www.linshare.org/licenses/LinShare-License_AfferoGPL-v3.pdf>
for more details.
This program is distributed in the hope that it will be useful, but WITHOUT ANY
WARRANTY; without even the implied warranty of MERCHANTABILITY or FITNESS
FOR A PARTICULAR PURPOSE. See the GNU Affero General Public License for
more details.
You should have received a copy of the GNU Affero General Public License and its
applicable Additional Terms for LinShare along with this program. If not, see
<http://www.gnu.org/licenses/> for the GNU Affero General Public License version
3 and <http://www.linshare.org/licenses/LinShare-License_AfferoGPL-v3.pdf> for
the Additional Terms applicable to LinShare software. -->

<svg width="20" height="20" viewBox="0 0 20 20" fill="none" xmlns="http://www.w3.org/2000/svg">
<g clip-path="url(#clip0)">
<path fill-rule="evenodd" clip-rule="evenodd" d="M2.01 2C2.01 0.9 2.9 0 4 0H12L18 6V18C18 19.1 17.1 20 16 20H3.99C2.89 20 2 19.1 2 18L2.01 2ZM11 1.5V7H16.5L11 1.5ZM12.4999 15.5C12.4999 16.33 11.8299 17 10.9999 17H8.49994V11H10.9999C11.8299 11 12.4999 11.67 12.4999 12.5V15.5ZM7.49999 13.5C7.49999 14.33 6.82999 15 5.99999 15H4.99999V17H3.49999V11H5.99999C6.82999 11 7.49999 11.67 7.49999 12.5V13.5ZM14.9999 12.5H16.4999V11H13.4999V17H14.9999V15H16.4999V13.5H14.9999V12.5ZM5.99995 13.5H4.99996V12.5H5.99995V13.5ZM11 15.5H9.99998V12.5H11V15.5Z" fill="#C61E42"/>
</g>
<defs>
<clipPath id="clip0">
<rect width="20" height="20" fill="white"/>
</clipPath>
</defs>
</svg>
