<svg width="20" height="20" viewBox="0 0 20 20" fill="none" xmlns="http://www.w3.org/2000/svg">
<g clip-path="url(#clip0)">
<path fill-rule="evenodd" clip-rule="evenodd" d="M2.01 2C2.01 0.9 2.9 0 4 0H12L18 6V18C18 19.1 17.1 20 16 20H3.99C2.89 20 2 19.1 2 18L2.01 2ZM11 1.5V7H16.5L11 1.5ZM12.4999 15.5C12.4999 16.33 11.8299 17 10.9999 17H8.49994V11H10.9999C11.8299 11 12.4999 11.67 12.4999 12.5V15.5ZM7.49999 13.5C7.49999 14.33 6.82999 15 5.99999 15H4.99999V17H3.49999V11H5.99999C6.82999 11 7.49999 11.67 7.49999 12.5V13.5ZM14.9999 12.5H16.4999V11H13.4999V17H14.9999V15H16.4999V13.5H14.9999V12.5ZM5.99995 13.5H4.99996V12.5H5.99995V13.5ZM11 15.5H9.99998V12.5H11V15.5Z" fill="#C61E42"/>
</g>
<defs>
<clipPath id="clip0">
<rect width="20" height="20" fill="white"/>
</clipPath>
</defs>
</svg>
