<!-- LinShare is an open source filesharing software, part of the LinPKI software
suite, developed by Linagora.

Copyright (C) 2020 LINAGORA

This program is free software: you can redistribute it and/or modify it under the
terms of the GNU Affero General Public License as published by the Free Software
Foundation, either version 3 of the License, or (at your option) any later version,
provided you comply with the Additional Terms applicable for LinShare software by
Linagora pursuant to Section 7 of the GNU Affero General Public License,
subsections (b), (c), and (e), pursuant to which you must notably (i) retain the
display in the interface of the “LinShare™” trademark/logo, the "Libre & Free" mention,
the words “You are using the Free and Open Source version of LinShare™, powered by
Linagora © 2009–2020. Contribute to Linshare R&D by subscribing to an Enterprise
offer!”. You must also retain the latter notice in all asynchronous messages such as
e-mails sent with the Program, (ii) retain all hypertext links between LinShare and
http://www.linshare.org, between linagora.com and Linagora, and (iii) refrain from
infringing Linagora intellectual property rights over its trademarks and commercial
brands. Other Additional Terms apply, see
<http://www.linshare.org/licenses/LinShare-License_AfferoGPL-v3.pdf>
for more details.
This program is distributed in the hope that it will be useful, but WITHOUT ANY
WARRANTY; without even the implied warranty of MERCHANTABILITY or FITNESS
FOR A PARTICULAR PURPOSE. See the GNU Affero General Public License for
more details.
You should have received a copy of the GNU Affero General Public License and its
applicable Additional Terms for LinShare along with this program. If not, see
<http://www.gnu.org/licenses/> for the GNU Affero General Public License version
3 and <http://www.linshare.org/licenses/LinShare-License_AfferoGPL-v3.pdf> for
the Additional Terms applicable to LinShare software. -->

<svg width="20" height="20" viewBox="0 0 20 20" fill="none" xmlns="http://www.w3.org/2000/svg">
<path d="M4 0C2.9 0 2 0.9 2 2V18C2 19.1 2.9 20 4 20H16C17.1 20 18 19.1 18 18V6L12 0H4ZM11 7V1.5L16.5 7H11ZM6 17.8H4V15.8H6V17.8ZM6 14.8H4V12.8H6V14.8ZM6 11.8H4V9.8H6V11.8ZM13 17.8H8V15.8H13V17.8ZM16 14.8H8V12.8H16V14.8ZM16 11.8H8V9.8H16V11.8Z" fill="#00BFA5"/>
</svg>
