<svg width="24" height="25" viewBox="0 0 24 25" fill="none" xmlns="http://www.w3.org/2000/svg">
<path fill-rule="evenodd" clip-rule="evenodd" d="M1.5 5.42822C1.5 4.83149 1.73705 4.25919 2.15901 3.83723C2.58097 3.41528 3.15326 3.17822 3.75 3.17822H7.896C9.333 3.17822 10.536 4.01822 11.3625 4.95422C11.9775 5.65022 12.72 6.17822 13.5 6.17822H20.25C20.8467 6.17822 21.419 6.41528 21.841 6.83723C22.2629 7.25919 22.5 7.83149 22.5 8.42822V18.9282C22.5 19.525 22.2629 20.0973 21.841 20.5192C21.419 20.9412 20.8467 21.1782 20.25 21.1782H3.75C3.15326 21.1782 2.58097 20.9412 2.15901 20.5192C1.73705 20.0973 1.5 19.525 1.5 18.9282V5.42822ZM3.75 4.67822C3.55109 4.67822 3.36032 4.75724 3.21967 4.89789C3.07902 5.03855 3 5.22931 3 5.42822V9.17822H21V8.42822C21 8.22931 20.921 8.03855 20.7803 7.89789C20.6397 7.75724 20.4489 7.67822 20.25 7.67822H13.5C12.054 7.67822 10.935 6.73472 10.239 5.94722C9.561 5.17922 8.73 4.67822 7.896 4.67822H3.75ZM21 10.6782H3V18.9282C3 19.1271 3.07902 19.3179 3.21967 19.4586C3.36032 19.5992 3.55109 19.6782 3.75 19.6782H20.25C20.4489 19.6782 20.6397 19.5992 20.7803 19.4586C20.921 19.3179 21 19.1271 21 18.9282V10.6782Z" fill="#2997FF"/>
</svg>
