<!-- LinShare is an open source filesharing software, part of the LinPKI software
suite, developed by Linagora.

Copyright (C) 2020 LINAGORA

This program is free software: you can redistribute it and/or modify it under the
terms of the GNU Affero General Public License as published by the Free Software
Foundation, either version 3 of the License, or (at your option) any later version,
provided you comply with the Additional Terms applicable for LinShare software by
Linagora pursuant to Section 7 of the GNU Affero General Public License,
subsections (b), (c), and (e), pursuant to which you must notably (i) retain the
display in the interface of the “LinShare™” trademark/logo, the "Libre & Free" mention,
the words “You are using the Free and Open Source version of LinShare™, powered by
Linagora © 2009–2020. Contribute to Linshare R&D by subscribing to an Enterprise
offer!”. You must also retain the latter notice in all asynchronous messages such as
e-mails sent with the Program, (ii) retain all hypertext links between LinShare and
http://www.linshare.org, between linagora.com and Linagora, and (iii) refrain from
infringing Linagora intellectual property rights over its trademarks and commercial
brands. Other Additional Terms apply, see
<http://www.linshare.org/licenses/LinShare-License_AfferoGPL-v3.pdf>
for more details.
This program is distributed in the hope that it will be useful, but WITHOUT ANY
WARRANTY; without even the implied warranty of MERCHANTABILITY or FITNESS
FOR A PARTICULAR PURPOSE. See the GNU Affero General Public License for
more details.
You should have received a copy of the GNU Affero General Public License and its
applicable Additional Terms for LinShare along with this program. If not, see
<http://www.gnu.org/licenses/> for the GNU Affero General Public License version
3 and <http://www.linshare.org/licenses/LinShare-License_AfferoGPL-v3.pdf> for
the Additional Terms applicable to LinShare software. -->


<svg width="64" height="64" viewBox="0 0 64 64" fill="none" xmlns="http://www.w3.org/2000/svg">
    <path fill-rule="evenodd" clip-rule="evenodd"
        d="M3.25 17.5625V10.375C3.25 6.44625 6.44631 3.25 10.375 3.25H17.5625C18.4599 3.25 19.1875 2.52244 19.1875 1.625C19.1875 0.727562 18.4599 0 17.5625 0H10.375C4.65425 0 0 4.65419 0 10.375V17.5625C0 18.4599 0.727562 19.1875 1.625 19.1875C2.52244 19.1875 3.25 18.4599 3.25 17.5625ZM17.5625 60.75C18.4599 60.75 19.1875 61.4776 19.1875 62.375C19.1875 63.2724 18.4599 64 17.5625 64H10.375C4.65425 64 0 59.3457 0 53.625V46.4375C0 45.5401 0.727562 44.8125 1.625 44.8125C2.52244 44.8125 3.25 45.5401 3.25 46.4375V53.625C3.25 57.5537 6.44631 60.75 10.375 60.75H17.5625ZM64 46.4375V53.625C64 59.3457 59.3457 64 53.625 64H46.4375C45.5401 64 44.8125 63.2724 44.8125 62.375C44.8125 61.4776 45.5401 60.75 46.4375 60.75H53.625C57.5537 60.75 60.75 57.5537 60.75 53.625V46.4375C60.75 45.5401 61.4776 44.8125 62.375 44.8125C63.2724 44.8125 64 45.5401 64 46.4375ZM64 10.375V17.5625C64 18.4599 63.2724 19.1875 62.375 19.1875C61.4776 19.1875 60.75 18.4599 60.75 17.5625V10.375C60.75 6.44625 57.5537 3.25 53.625 3.25H46.4375C45.5401 3.25 44.8125 2.52244 44.8125 1.625C44.8125 0.727562 45.5401 0 46.4375 0H53.625C59.3457 0 64 4.65419 64 10.375ZM43.2143 47.3021C43.899 46.6698 43.9413 45.6021 43.3089 44.9175C42.6765 44.2329 41.6089 44.1906 40.9243 44.8229C38.4882 47.0731 35.3188 48.3124 32 48.3124C28.6812 48.3124 25.5118 47.0731 23.0758 44.8229C22.391 44.1906 21.3236 44.2329 20.6911 44.9175C20.0588 45.6021 20.1011 46.6698 20.7857 47.3021C23.8473 50.13 27.8298 51.6874 32 51.6874C36.1702 51.6874 40.1528 50.13 43.2143 47.3021ZM35.375 24.125V36.125C35.375 38.5029 33.4404 40.4375 31.0625 40.4375H29.6875C28.7555 40.4375 28 39.682 28 38.75C28 37.818 28.7555 37.0625 29.6875 37.0625H31.0625C31.5794 37.0625 32 36.6419 32 36.125V24.125C32 23.193 32.7555 22.4375 33.6875 22.4375C34.6195 22.4375 35.375 23.193 35.375 24.125ZM47 28.8438V24.0312C47 23.1511 46.2864 22.4375 45.4062 22.4375C44.5261 22.4375 43.8125 23.1511 43.8125 24.0312V28.8438C43.8125 29.7239 44.5261 30.4375 45.4062 30.4375C46.2864 30.4375 47 29.7239 47 28.8438ZM17.375 28.8438C17.375 29.7239 18.0886 30.4375 18.9688 30.4375C19.8489 30.4375 20.5625 29.7239 20.5625 28.8438V24.0312C20.5625 23.1511 19.8489 22.4375 18.9688 22.4375C18.0886 22.4375 17.375 23.1511 17.375 24.0312V28.8438Z"
        fill="#1B7EC7" />
</svg>
