<!-- LinShare is an open source filesharing software, part of the LinPKI software
suite, developed by Linagora.

Copyright (C) 2020 LINAGORA

This program is free software: you can redistribute it and/or modify it under the
terms of the GNU Affero General Public License as published by the Free Software
Foundation, either version 3 of the License, or (at your option) any later version,
provided you comply with the Additional Terms applicable for LinShare software by
Linagora pursuant to Section 7 of the GNU Affero General Public License,
subsections (b), (c), and (e), pursuant to which you must notably (i) retain the
display in the interface of the “LinShare™” trademark/logo, the "Libre & Free" mention,
the words “You are using the Free and Open Source version of LinShare™, powered by
Linagora © 2009–2020. Contribute to Linshare R&D by subscribing to an Enterprise
offer!”. You must also retain the latter notice in all asynchronous messages such as
e-mails sent with the Program, (ii) retain all hypertext links between LinShare and
http://www.linshare.org, between linagora.com and Linagora, and (iii) refrain from
infringing Linagora intellectual property rights over its trademarks and commercial
brands. Other Additional Terms apply, see
<http://www.linshare.org/licenses/LinShare-License_AfferoGPL-v3.pdf>
for more details.
This program is distributed in the hope that it will be useful, but WITHOUT ANY
WARRANTY; without even the implied warranty of MERCHANTABILITY or FITNESS
FOR A PARTICULAR PURPOSE. See the GNU Affero General Public License for
more details.
You should have received a copy of the GNU Affero General Public License and its
applicable Additional Terms for LinShare along with this program. If not, see
<http://www.gnu.org/licenses/> for the GNU Affero General Public License version
3 and <http://www.linshare.org/licenses/LinShare-License_AfferoGPL-v3.pdf> for
the Additional Terms applicable to LinShare software. -->

<svg width="108" height="22" viewBox="0 0 108 22" fill="none" xmlns="http://www.w3.org/2000/svg">
<path d="M2.94922 18.8535H12.3828V21H0.310547V1.09375H2.94922V18.8535ZM17.7285 21H15.1992V6.20703H17.7285V21ZM14.9941 2.2832C14.9941 1.87305 15.1172 1.52669 15.3633 1.24414C15.6185 0.961589 15.9922 0.820312 16.4844 0.820312C16.9766 0.820312 17.3503 0.961589 17.6055 1.24414C17.8607 1.52669 17.9883 1.87305 17.9883 2.2832C17.9883 2.69336 17.8607 3.03516 17.6055 3.30859C17.3503 3.58203 16.9766 3.71875 16.4844 3.71875C15.9922 3.71875 15.6185 3.58203 15.3633 3.30859C15.1172 3.03516 14.9941 2.69336 14.9941 2.2832ZM24.1816 6.20703L24.2637 8.06641C25.3939 6.64453 26.8704 5.93359 28.6934 5.93359C31.8197 5.93359 33.3965 7.69727 33.4238 11.2246V21H30.8945V11.2109C30.8854 10.1445 30.6393 9.35612 30.1562 8.8457C29.6823 8.33529 28.9395 8.08008 27.9277 8.08008C27.1074 8.08008 26.3874 8.29883 25.7676 8.73633C25.1478 9.17383 24.6647 9.74805 24.3184 10.459V21H21.7891V6.20703H24.1816ZM47.4238 15.7773C47.4238 15.0026 47.1504 14.4102 46.6035 14C46.0566 13.5807 45.0723 13.1432 43.6504 12.6875C42.2285 12.2227 41.1029 11.7669 40.2734 11.3203C38.013 10.099 36.8828 8.45378 36.8828 6.38477C36.8828 5.30924 37.1836 4.35221 37.7852 3.51367C38.3958 2.66602 39.2663 2.00521 40.3965 1.53125C41.5358 1.05729 42.8118 0.820312 44.2246 0.820312C45.6465 0.820312 46.9134 1.08008 48.0254 1.59961C49.1374 2.11003 49.9987 2.83464 50.6094 3.77344C51.2292 4.71224 51.5391 5.77865 51.5391 6.97266H47.4375C47.4375 6.0612 47.1504 5.35482 46.5762 4.85352C46.002 4.3431 45.1953 4.08789 44.1562 4.08789C43.1536 4.08789 42.3743 4.30208 41.8184 4.73047C41.2624 5.14974 40.9844 5.70573 40.9844 6.39844C40.9844 7.04557 41.3079 7.58789 41.9551 8.02539C42.6113 8.46289 43.5729 8.87305 44.8398 9.25586C47.1732 9.95768 48.873 10.8281 49.9395 11.8672C51.0059 12.9062 51.5391 14.2005 51.5391 15.75C51.5391 17.4727 50.8874 18.8262 49.584 19.8105C48.2806 20.7858 46.526 21.2734 44.3203 21.2734C42.7891 21.2734 41.3945 20.9954 40.1367 20.4395C38.8789 19.8743 37.9173 19.1042 37.252 18.1289C36.5957 17.1536 36.2676 16.0234 36.2676 14.7383H40.3828C40.3828 16.9349 41.6953 18.0332 44.3203 18.0332C45.2956 18.0332 46.0566 17.8372 46.6035 17.4453C47.1504 17.0443 47.4238 16.4883 47.4238 15.7773ZM57.9238 7.82031C58.972 6.5625 60.2891 5.93359 61.875 5.93359C65.0833 5.93359 66.7103 7.79753 66.7559 11.5254V21H62.8047V11.6348C62.8047 10.7871 62.6224 10.1628 62.2578 9.76172C61.8932 9.35156 61.2871 9.14648 60.4395 9.14648C59.2819 9.14648 58.4434 9.5931 57.9238 10.4863V21H53.9727V0H57.9238V7.82031ZM78.3086 21C78.1263 20.6445 77.9941 20.2025 77.9121 19.6738C76.9551 20.7402 75.7109 21.2734 74.1797 21.2734C72.7305 21.2734 71.5273 20.8542 70.5703 20.0156C69.6224 19.1771 69.1484 18.1198 69.1484 16.8438C69.1484 15.276 69.7272 14.0729 70.8848 13.2344C72.0514 12.3958 73.7331 11.972 75.9297 11.9629H77.748V11.1152C77.748 10.4316 77.5703 9.88477 77.2148 9.47461C76.8685 9.06445 76.3171 8.85938 75.5605 8.85938C74.8952 8.85938 74.3711 9.01888 73.9883 9.33789C73.6146 9.6569 73.4277 10.0944 73.4277 10.6504H69.4766C69.4766 9.79362 69.7409 9.00065 70.2695 8.27148C70.7982 7.54232 71.5456 6.97266 72.5117 6.5625C73.4779 6.14323 74.5625 5.93359 75.7656 5.93359C77.5885 5.93359 79.0332 6.39388 80.0996 7.31445C81.1751 8.22591 81.7129 9.51107 81.7129 11.1699V17.582C81.722 18.9857 81.918 20.0475 82.3008 20.7676V21H78.3086ZM75.041 18.252C75.6243 18.252 76.1621 18.1243 76.6543 17.8691C77.1465 17.6048 77.5111 17.2539 77.748 16.8164V14.2734H76.2715C74.2936 14.2734 73.2409 14.957 73.1133 16.3242L73.0996 16.5566C73.0996 17.0488 73.2728 17.4544 73.6191 17.7734C73.9655 18.0924 74.4395 18.252 75.041 18.252ZM93.0605 9.91211C92.5228 9.83919 92.0488 9.80273 91.6387 9.80273C90.1439 9.80273 89.1641 10.3086 88.6992 11.3203V21H84.748V6.20703H88.4805L88.5898 7.9707C89.3828 6.61263 90.4811 5.93359 91.8848 5.93359C92.3223 5.93359 92.7324 5.99284 93.1152 6.11133L93.0605 9.91211ZM101.51 21.2734C99.3405 21.2734 97.5723 20.6081 96.2051 19.2773C94.847 17.9466 94.168 16.1738 94.168 13.959V13.5762C94.168 12.0905 94.4551 10.7643 95.0293 9.59766C95.6035 8.42188 96.4147 7.51953 97.4629 6.89062C98.5202 6.2526 99.7233 5.93359 101.072 5.93359C103.096 5.93359 104.686 6.57161 105.844 7.84766C107.01 9.1237 107.594 10.9329 107.594 13.2754V14.8887H98.1738C98.3014 15.8548 98.6842 16.6296 99.3223 17.2129C99.9694 17.7962 100.785 18.0879 101.77 18.0879C103.292 18.0879 104.481 17.5365 105.338 16.4336L107.279 18.6074C106.687 19.446 105.885 20.1022 104.873 20.5762C103.861 21.041 102.74 21.2734 101.51 21.2734ZM101.059 9.13281C100.275 9.13281 99.6367 9.39714 99.1445 9.92578C98.6615 10.4544 98.3516 11.2109 98.2148 12.1953H103.711V11.8809C103.693 11.0059 103.456 10.3314 103 9.85742C102.544 9.37435 101.897 9.13281 101.059 9.13281Z" fill="white"/>
</svg>
