<svg width="14" height="14" viewBox="0 0 14 14" fill="none" xmlns="http://www.w3.org/2000/svg">
<path d="M12.9819 0.351472C13.4505 0.820101 13.4505 1.5799 12.9819 2.04853L8.364 6.66667L12.9819 11.2848C13.4115 11.7144 13.4473 12.3886 13.0893 12.859L12.9819 12.9819C12.5132 13.4505 11.7534 13.4505 11.2848 12.9819L6.66667 8.364L2.04853 12.9819C1.5799 13.4505 0.820101 13.4505 0.351472 12.9819C-0.117157 12.5132 -0.117157 11.7534 0.351472 11.2848L4.96933 6.66667L0.351472 2.04853C-0.0781048 1.61895 -0.113903 0.944712 0.244078 0.474358L0.351472 0.351472C0.820101 -0.117157 1.5799 -0.117157 2.04853 0.351472L6.66667 4.96933L11.2848 0.351472C11.7534 -0.117157 12.5132 -0.117157 12.9819 0.351472Z" fill="black" fill-opacity="0.6"/>
</svg>
