<svg width="74" height="74" viewBox="0 0 74 74" fill="none" xmlns="http://www.w3.org/2000/svg">
    <defs>
        <linearGradient id="paint0_linear_5359_39128" x1="41.684" y1="45.5333" x2="16.041"
            y2="3.03285" gradientUnits="userSpaceOnUse">
            <stop stop-color="#FF223E" />
            <stop offset="1" stop-color="#B5182C" />
        </linearGradient>
    </defs>
    <path
        d="M73.0069 2.45333C72.8602 2.06659 72.5266 1.78122 72.1218 1.69621C71.717 1.6112 71.2967 1.73827 71.0069 2.03333L59.8735 13.6667L60.0002 13.5467H73.5402V3.53333L73.0069 2.45333Z"
        fill="#B52E46" />
    <path
        d="M2.41312 71.1267C0.859783 72.66 1.59978 73.42 2.41312 73.5H15.6598L15.5265 57.8C13.2531 59.8467 2.41312 71.1267 2.41312 71.1267Z"
        fill="#B52E46" />
    <path
        d="M70.44 7.01019e-07H40.7267C38.4294 -0.000922617 36.2258 0.91027 34.6 2.53333L2.54 34.5933C0.912858 36.2196 -0.000922928 38.4261 6.99504e-07 40.7267C6.99504e-07 40.7267 6.99504e-07 65.9467 6.99504e-07 72.1533C0.0181514 72.8977 0.628785 73.4905 1.37333 73.4867H2.41333C1.00667 73.2 1.64667 71.9 2.21333 71.3067L13.5467 59.9267L59.8267 13.6467L70.96 2.01333C71.2499 1.71827 71.6701 1.5912 72.0749 1.67621C72.4797 1.76122 72.8133 2.04659 72.96 2.43333L73.4667 3.51333V3.06C73.4596 1.3859 72.1139 0.0254069 70.44 7.01019e-07Z"
        fill="url(#paint0_linear_5359_39128)" />
    <path
        d="M17.6402 46.5395L9.22562 38.1249L12.7718 34.5788C13.5892 33.7613 14.4587 33.3246 15.3803 33.2685C16.3019 33.1964 17.0752 33.4728 17.7003 34.0979C18.2452 34.6429 18.5097 35.292 18.4937 36.0453C18.4776 36.3979 18.4135 36.7104 18.3013 36.9829C18.662 36.7826 19.0586 36.6584 19.4914 36.6103C20.4531 36.5301 21.2585 36.8146 21.9076 37.4638C22.5807 38.1369 22.8853 38.9704 22.8212 39.9641C22.7651 40.9498 22.3003 41.8794 21.4268 42.7529L17.6402 46.5395ZM17.8806 43.1736L19.7438 41.3104C20.0964 40.9578 20.2808 40.5892 20.2968 40.2045C20.3208 39.8118 20.1766 39.4592 19.864 39.1467C19.5515 38.8341 19.1989 38.6899 18.8062 38.7139C18.4215 38.7299 18.0529 38.9143 17.7003 39.2669L15.8371 41.1301L17.8806 43.1736ZM14.2744 39.5674L15.8972 37.9446C16.1937 37.6481 16.35 37.3395 16.366 37.019C16.382 36.6824 16.2658 36.3899 16.0174 36.1415C15.769 35.893 15.4805 35.7808 15.1519 35.8049C14.8233 35.8129 14.5108 35.9652 14.2143 36.2617L12.5915 37.8845L14.2744 39.5674ZM25.8808 38.2989L17.4662 29.8843L23.717 23.6335L25.4 25.3164L20.9523 29.7641L22.5751 31.3869L26.0611 27.9009L27.6839 29.5237L24.1979 33.0097L26.001 34.8128L30.5689 30.2449L32.2518 31.9278L25.8808 38.2989ZM35.3789 28.8008L28.6472 22.0691L26.2431 24.4733L24.5602 22.7904L31.1716 16.1789L32.8545 17.8618L30.4504 20.266L37.182 26.9977L35.3789 28.8008ZM38.8093 18.2781L40.8528 16.2346L37.0903 14.4675L37.0422 14.5156L38.8093 18.2781ZM39.1098 25.0699L33.9409 13.4097L35.9844 11.3661L47.6446 16.5351L45.7213 18.4584L43.0767 17.2563L39.8311 20.5019L41.0331 23.1465L39.1098 25.0699Z"
        fill="white" />
</svg>
