<svg width="24" height="25" viewBox="0 0 24 25" fill="none" xmlns="http://www.w3.org/2000/svg">
<g clip-path="url(#clip0_4654_28015)">
<path fill-rule="evenodd" clip-rule="evenodd" d="M5.25 9.92822C5.44891 9.92822 5.63968 10.0072 5.78033 10.1479C5.92098 10.2885 6 10.4793 6 10.6782V12.1782C6 13.7695 6.63214 15.2956 7.75736 16.4209C8.88258 17.5461 10.4087 18.1782 12 18.1782C13.5913 18.1782 15.1174 17.5461 16.2426 16.4209C17.3679 15.2956 18 13.7695 18 12.1782V10.6782C18 10.4793 18.079 10.2885 18.2197 10.1479C18.3603 10.0072 18.5511 9.92822 18.75 9.92822C18.9489 9.92822 19.1397 10.0072 19.2803 10.1479C19.421 10.2885 19.5 10.4793 19.5 10.6782V12.1782C19.5 14.0375 18.8094 15.8305 17.5622 17.2094C16.3149 18.5883 14.6 19.4548 12.75 19.6407V22.6782H17.25C17.4489 22.6782 17.6397 22.7572 17.7803 22.8979C17.921 23.0385 18 23.2293 18 23.4282C18 23.6271 17.921 23.8179 17.7803 23.9586C17.6397 24.0992 17.4489 24.1782 17.25 24.1782H6.75C6.55109 24.1782 6.36032 24.0992 6.21967 23.9586C6.07902 23.8179 6 23.6271 6 23.4282C6 23.2293 6.07902 23.0385 6.21967 22.8979C6.36032 22.7572 6.55109 22.6782 6.75 22.6782H11.25V19.6407C9.40003 19.4548 7.68506 18.5883 6.43782 17.2094C5.19058 15.8305 4.49998 14.0375 4.5 12.1782V10.6782C4.5 10.4793 4.57902 10.2885 4.71967 10.1479C4.86032 10.0072 5.05109 9.92822 5.25 9.92822Z" fill="#2997FF"/>
<path fill-rule="evenodd" clip-rule="evenodd" d="M15 12.1782V4.67822C15 3.88257 14.6839 3.11951 14.1213 2.5569C13.5587 1.99429 12.7956 1.67822 12 1.67822C11.2044 1.67822 10.4413 1.99429 9.87868 2.5569C9.31607 3.11951 9 3.88257 9 4.67822V12.1782C9 12.9739 9.31607 13.7369 9.87868 14.2995C10.4413 14.8622 11.2044 15.1782 12 15.1782C12.7956 15.1782 13.5587 14.8622 14.1213 14.2995C14.6839 13.7369 15 12.9739 15 12.1782ZM12 0.178223C10.8065 0.178223 9.66193 0.652328 8.81802 1.49624C7.97411 2.34016 7.5 3.48475 7.5 4.67822V12.1782C7.5 13.3717 7.97411 14.5163 8.81802 15.3602C9.66193 16.2041 10.8065 16.6782 12 16.6782C13.1935 16.6782 14.3381 16.2041 15.182 15.3602C16.0259 14.5163 16.5 13.3717 16.5 12.1782V4.67822C16.5 3.48475 16.0259 2.34016 15.182 1.49624C14.3381 0.652328 13.1935 0.178223 12 0.178223V0.178223Z" fill="#2997FF"/>
</g>
<defs>
<clipPath id="clip0_4654_28015">
<rect width="24" height="24" fill="white" transform="translate(0 0.178223)"/>
</clipPath>
</defs>
</svg>
