<svg width="24" height="24" viewBox="0 0 24 24" fill="none" xmlns="http://www.w3.org/2000/svg">
<path d="M12 7.33301C13.1067 7.33301 14 6.43967 14 5.33301C14 4.22634 13.1067 3.33301 12 3.33301C10.8933 3.33301 10 4.22634 10 5.33301C10 6.43967 10.8933 7.33301 12 7.33301ZM12 9.99967C10.8933 9.99967 10 10.893 10 11.9997C10 13.1063 10.8933 13.9997 12 13.9997C13.1067 13.9997 14 13.1063 14 11.9997C14 10.893 13.1067 9.99967 12 9.99967ZM12 16.6663C10.8933 16.6663 10 17.5597 10 18.6663C10 19.773 10.8933 20.6663 12 20.6663C13.1067 20.6663 14 19.773 14 18.6663C14 17.5597 13.1067 16.6663 12 16.6663Z" fill="#4AC6FF"/>
</svg>
