<svg width="120" height="120" viewBox="0 0 120 120" fill="none" xmlns="http://www.w3.org/2000/svg">
<path d="M97.5 120H22.5C10.0781 120 0 109.922 0 97.5V22.5C0 10.0781 10.0781 0 22.5 0H97.5C109.922 0 120 10.0781 120 22.5V97.5C120 109.922 109.922 120 97.5 120Z" fill="#F2F2F2"/>
<g clip-path="url(#clip0)">
<path d="M80.9778 47.3771L68.8889 35.2883C68.5333 34.9327 68.3555 34.7549 67.8222 34.5771V48.6216H81.8666C81.3333 47.9105 81.1555 47.7327 80.9778 47.3771Z" fill="#D3D3D3"/>
<path d="M63.2 72.4441V78.3108C63.2 78.6663 63.0222 78.8441 62.6667 79.0219C62.3111 79.1997 62.1333 79.1997 61.7778 78.8441L51.6444 69.5997C51.4667 69.4219 51.2889 69.2441 51.2889 69.0663C51.2889 68.7108 51.4667 68.533 51.6444 68.533L61.7778 59.2886C62.1333 58.933 62.3111 58.933 62.6667 59.1108C63.0222 59.2886 63.2 59.6441 63.2 59.8219V65.6886H82.7555V52.3552H66.5778C65.8667 52.3552 64.9778 51.9997 64.6222 51.6441C64.0889 51.1108 63.9111 50.3997 63.9111 49.6886V33.333H40.2667C39.3778 33.333 38.6667 33.6886 38.1333 34.2219C37.6 34.7552 37.4222 35.2886 37.4222 36.1775V83.6441C37.4222 84.3552 37.7778 85.2441 38.1333 85.5997C38.6667 86.133 39.3778 86.3108 40.0889 86.3108H79.9111C80.6222 86.3108 81.5111 85.9552 81.8667 85.5997C82.4 85.0663 82.5778 84.3552 82.5778 83.6441V72.4441H63.2Z" fill="#D3D3D3"/>
</g>
<defs>
<clipPath id="clip0">
<rect width="64" height="64" fill="white" transform="translate(28 28)"/>
</clipPath>
</defs>
</svg>
