<svg width="24" height="25" viewBox="0 0 24 25" fill="none" xmlns="http://www.w3.org/2000/svg">
<path fill-rule="evenodd" clip-rule="evenodd" d="M18.0029 6.17822H3.00293C2.6051 6.17822 2.22357 6.33626 1.94227 6.61756C1.66097 6.89887 1.50293 7.2804 1.50293 7.67822V19.6782L5.47193 16.1472C5.59453 16.0251 5.7556 15.9491 5.92784 15.9321C6.10007 15.9152 6.27287 15.9583 6.41693 16.0542L10.4069 18.7137L15.9719 13.1487C16.0832 13.0374 16.2266 12.9639 16.3819 12.9386C16.5373 12.9132 16.6966 12.9374 16.8374 13.0077L19.5029 15.9282V7.67822C19.5029 7.2804 19.3449 6.89887 19.0636 6.61756C18.7823 6.33626 18.4008 6.17822 18.0029 6.17822ZM3.00293 4.67822C2.20728 4.67822 1.44422 4.99429 0.881609 5.5569C0.319 6.11951 0.00292969 6.88257 0.00292969 7.67822V19.6782C0.00292969 20.4739 0.319 21.2369 0.881609 21.7995C1.44422 22.3622 2.20728 22.6782 3.00293 22.6782H18.0029C18.7986 22.6782 19.5616 22.3622 20.1243 21.7995C20.6869 21.2369 21.0029 20.4739 21.0029 19.6782V7.67822C21.0029 6.88257 20.6869 6.11951 20.1243 5.5569C19.5616 4.99429 18.7986 4.67822 18.0029 4.67822H3.00293ZM9.00293 11.4282C9.00293 11.7237 8.94473 12.0163 8.83166 12.2893C8.71859 12.5622 8.55285 12.8103 8.34392 13.0192C8.13499 13.2281 7.88695 13.3939 7.61397 13.507C7.34098 13.62 7.0484 13.6782 6.75293 13.6782C6.45746 13.6782 6.16487 13.62 5.89189 13.507C5.61891 13.3939 5.37087 13.2281 5.16194 13.0192C4.95301 12.8103 4.78727 12.5622 4.6742 12.2893C4.56113 12.0163 4.50293 11.7237 4.50293 11.4282C4.50293 10.8315 4.73998 10.2592 5.16194 9.83723C5.5839 9.41528 6.15619 9.17822 6.75293 9.17822C7.34967 9.17822 7.92196 9.41528 8.34392 9.83723C8.76588 10.2592 9.00293 10.8315 9.00293 11.4282Z" fill="#2997FF"/>
<path fill-rule="evenodd" clip-rule="evenodd" d="M6 3.17822H21C21.3978 3.17822 21.7794 3.33626 22.0607 3.61756C22.342 3.89887 22.5 4.2804 22.5 4.67822V16.6782C22.5 17.076 22.342 17.4576 22.0607 17.7389C21.7794 18.0202 21.3978 18.1782 21 18.1782V19.6782C21.7956 19.6782 22.5587 19.3622 23.1213 18.7995C23.6839 18.2369 24 17.4739 24 16.6782V4.67822C24 3.88257 23.6839 3.11951 23.1213 2.5569C22.5587 1.99429 21.7956 1.67822 21 1.67822H6C5.20435 1.67822 4.44129 1.99429 3.87868 2.5569C3.31607 3.11951 3 3.88257 3 4.67822H4.5C4.5 4.2804 4.65804 3.89887 4.93934 3.61756C5.22064 3.33626 5.60218 3.17822 6 3.17822Z" fill="#2997FF"/>
</svg>
