<svg width="24" height="22" viewBox="0 0 24 22" fill="none" xmlns="http://www.w3.org/2000/svg">
<path fill-rule="evenodd" clip-rule="evenodd" d="M9.38533 2.03879C10.5329 -0.012931 13.4686 -0.012931 14.6147 2.03879L22.9852 17.0043C24.1102 19.0168 22.6657 21.5 20.372 21.5H3.62947C1.33433 21.5 -0.110261 19.0168 1.01481 17.0043L9.38533 2.03879ZM13.5001 16.9756C13.5001 17.3758 13.342 17.7595 13.0607 18.0424C12.7794 18.3253 12.3978 18.4843 12 18.4843C11.6021 18.4843 11.2206 18.3253 10.9393 18.0424C10.6579 17.7595 10.4999 17.3758 10.4999 16.9756C10.4999 16.5755 10.6579 16.1918 10.9393 15.9089C11.2206 15.626 11.6021 15.467 12 15.467C12.3978 15.467 12.7794 15.626 13.0607 15.9089C13.342 16.1918 13.5001 16.5755 13.5001 16.9756ZM12 4.90668C11.6021 4.90668 11.2206 5.06562 10.9393 5.34855C10.6579 5.63147 10.4999 6.01519 10.4999 6.4153V10.9412C10.4999 11.3413 10.6579 11.725 10.9393 12.0079C11.2206 12.2908 11.6021 12.4498 12 12.4498C12.3978 12.4498 12.7794 12.2908 13.0607 12.0079C13.342 11.725 13.5001 11.3413 13.5001 10.9412V6.4153C13.5001 6.01519 13.342 5.63147 13.0607 5.34855C12.7794 5.06562 12.3978 4.90668 12 4.90668Z" fill="#FFA940"/>
</svg>
