<svg width="16" height="16" viewBox="0 0 16 16" fill="none" xmlns="http://www.w3.org/2000/svg">
<path d="M10.6667 7.3335C11.7733 7.3335 12.66 6.44016 12.66 5.3335C12.66 4.22683 11.7733 3.3335 10.6667 3.3335C9.56001 3.3335 8.66668 4.22683 8.66668 5.3335C8.66668 6.44016 9.56001 7.3335 10.6667 7.3335ZM5.33334 7.3335C6.44001 7.3335 7.32668 6.44016 7.32668 5.3335C7.32668 4.22683 6.44001 3.3335 5.33334 3.3335C4.22668 3.3335 3.33334 4.22683 3.33334 5.3335C3.33334 6.44016 4.22668 7.3335 5.33334 7.3335ZM5.33334 8.66683C3.78001 8.66683 0.666677 9.44683 0.666677 11.0002V12.6668H10V11.0002C10 9.44683 6.88668 8.66683 5.33334 8.66683ZM10.6667 8.66683C10.4733 8.66683 10.2533 8.68016 10.02 8.70016C10.7933 9.26016 11.3333 10.0135 11.3333 11.0002V12.6668H15.3333V11.0002C15.3333 9.44683 12.22 8.66683 10.6667 8.66683Z" fill="#4AC6FF"/>
</svg>
