<svg width="90" height="90" viewBox="0 0 90 90" fill="none" xmlns="http://www.w3.org/2000/svg">
    <defs>
        <clipPath id="clip0_5125_37476">
            <rect width="33.75" height="33.75" fill="white" transform="translate(28.125 28.125)" />
        </clipPath>
    </defs>
    <rect opacity="0.12" width="90" height="90" rx="16" fill="#FF3B30" />
    <g clip-path="url(#clip0_5125_37476)">
        <path
            d="M45 28.125C35.6948 28.125 28.125 35.6948 28.125 45C28.125 54.3052 35.6948 61.875 45 61.875C54.3052 61.875 61.875 54.3052 61.875 45C61.875 35.6948 54.3052 28.125 45 28.125ZM51.2143 49.2257C51.7641 49.7757 51.7641 50.6643 51.2143 51.2143C50.9401 51.4885 50.5801 51.6263 50.2199 51.6263C49.8599 51.6263 49.4999 51.4885 49.2257 51.2143L45 46.9884L40.7743 51.2143C40.5001 51.4885 40.1401 51.6263 39.7801 51.6263C39.4199 51.6263 39.0599 51.4885 38.7857 51.2143C38.2359 50.6643 38.2359 49.7757 38.7857 49.2257L43.0116 45L38.7857 40.7743C38.2359 40.2243 38.2359 39.3357 38.7857 38.7857C39.3357 38.2359 40.2243 38.2359 40.7743 38.7857L45 43.0116L49.2257 38.7857C49.7757 38.2359 50.6643 38.2359 51.2143 38.7857C51.7641 39.3357 51.7641 40.2243 51.2143 40.7743L46.9884 45L51.2143 49.2257Z"
            fill="#FF3B30" />
    </g>
</svg>
