<svg width="24" height="24" viewBox="0 0 24 24" fill="none" xmlns="http://www.w3.org/2000/svg">
<path d="M12 9.77778C10.7778 9.77778 9.77778 10.7778 9.77778 12C9.77778 13.2222 10.7778 14.2222 12 14.2222C13.2222 14.2222 14.2222 13.2222 14.2222 12C14.2222 10.7778 13.2222 9.77778 12 9.77778ZM19.7778 2H4.22222C2.98889 2 2 3 2 4.22222V19.7778C2 21 2.98889 22 4.22222 22H19.7778C21.0111 22 22 21 22 19.7778V4.22222C22 3 21.0111 2 19.7778 2ZM17.8333 12C17.8333 12.2556 17.8111 12.5111 17.7778 12.7556L19.4222 14.0444C19.5667 14.1667 19.6111 14.3778 19.5111 14.5444L17.9556 17.2333C17.8556 17.4 17.6556 17.4667 17.4778 17.4L15.5444 16.6222C15.1444 16.9333 14.7 17.1889 14.2333 17.3889L13.9444 19.4444C13.9111 19.6333 13.7444 19.7778 13.5556 19.7778H10.4444C10.2556 19.7778 10.0889 19.6333 10.0556 19.4556L9.76667 17.4C9.28889 17.2 8.85556 16.9444 8.45556 16.6333L6.52222 17.4111C6.34444 17.4778 6.14444 17.4111 6.04444 17.2444L4.48889 14.5556C4.38889 14.3889 4.43333 14.1778 4.57778 14.0556L6.22222 12.7667C6.18889 12.5111 6.16667 12.2556 6.16667 12C6.16667 11.7444 6.18889 11.4889 6.22222 11.2444L4.57778 9.95556C4.43333 9.83333 4.38889 9.62222 4.48889 9.45556L6.04444 6.76667C6.14444 6.6 6.34444 6.53333 6.52222 6.6L8.45556 7.37778C8.85556 7.06667 9.3 6.81111 9.76667 6.61111L10.0556 4.55556C10.0889 4.36667 10.2556 4.22222 10.4444 4.22222H13.5556C13.7444 4.22222 13.9111 4.36667 13.9444 4.54444L14.2333 6.6C14.7111 6.8 15.1444 7.05556 15.5444 7.36667L17.4778 6.58889C17.6556 6.52222 17.8556 6.58889 17.9556 6.75556L19.5111 9.44444C19.6111 9.61111 19.5667 9.82222 19.4222 9.94444L17.7778 11.2333C17.8111 11.4889 17.8333 11.7444 17.8333 12Z" fill="#4AC6FF"/>
</svg>
