<svg width="24" height="24" viewBox="0 0 24 24" fill="none" xmlns="http://www.w3.org/2000/svg">
<path fill-rule="evenodd" clip-rule="evenodd" d="M4.06667 2C3.47756 2 3 2.49746 3 3.11111V9.88889C3 10.5025 3.47756 11 4.06667 11H9.93333C10.5224 11 11 10.5025 11 9.88889V5.5L7.5 2H4.06667ZM7 3V6H10L7 3ZM4.06667 13C3.47756 13 3 13.4975 3 14.1111V20.8889C3 21.5025 3.47756 22 4.06667 22H9.93333C10.5224 22 11 21.5025 11 20.8889V16.5L7.5 13H4.06667ZM7 14V17H10L7 14ZM13 3.11111C13 2.49746 13.4776 2 14.0667 2H17.5L21 5.5V9.88889C21 10.5025 20.5224 11 19.9333 11H14.0667C13.4776 11 13 10.5025 13 9.88889V3.11111ZM17 6V3L20 6H17ZM14.0667 13C13.4776 13 13 13.4975 13 14.1111V20.8889C13 21.5025 13.4776 22 14.0667 22H19.9333C20.5224 22 21 21.5025 21 20.8889V16.5L17.5 13H14.0667ZM17 14V17H20L17 14Z" fill="#ACACAC"/>
</svg>
