<svg width="68" height="68" viewBox="0 0 68 68" fill="none" xmlns="http://www.w3.org/2000/svg">
<rect width="68" height="68" rx="16" fill="#FBECEC"/>
<path fill-rule="evenodd" clip-rule="evenodd" d="M36.665 21.3807C35.0759 20.2064 32.9241 20.2064 31.335 21.3807C30.8695 21.7247 30.5049 22.2012 30.1614 22.7285C29.8191 23.2538 29.4284 23.9422 28.9455 24.7928L28.9455 24.7929L21.1105 38.5956C20.6276 39.4462 20.2369 40.1346 19.9607 40.6988C19.6835 41.2649 19.4601 41.8244 19.4 42.4064C19.1947 44.3933 20.2706 46.2887 22.065 47.1013C22.5906 47.3393 23.1787 47.4223 23.7993 47.4612C24.4178 47.5 25.1993 47.5 26.1651 47.5H41.8349C42.8007 47.5 43.5822 47.5 44.2007 47.4612C44.8213 47.4223 45.4094 47.3393 45.935 47.1013C47.7294 46.2887 48.8053 44.3933 48.6 42.4064C48.5399 41.8244 48.3165 41.2649 48.0393 40.6988C47.7631 40.1346 47.3723 39.4462 46.8894 38.5955L39.0545 24.7929C38.5716 23.9422 38.1809 23.2538 37.8386 22.7285C37.4951 22.2012 37.1305 21.7247 36.665 21.3807ZM32.7955 29.599C32.7955 28.8734 33.3738 28.2852 34.0872 28.2852C34.8006 28.2852 35.379 28.8734 35.379 29.599V36.1681C35.379 36.8937 34.8006 37.4819 34.0872 37.4819C33.3738 37.4819 32.7955 36.8937 32.7955 36.1681L32.7955 29.599ZM32.5372 41.4234C32.5372 40.5527 33.2312 39.8468 34.0872 39.8468C34.9433 39.8468 35.6373 40.5527 35.6373 41.4234C35.6373 42.2941 34.9433 43 34.0872 43C33.2312 43 32.5372 42.2941 32.5372 41.4234Z" fill="#EA3C3C"/>
</svg>
