<svg width="24" height="24" viewBox="0 0 24 24" fill="none" xmlns="http://www.w3.org/2000/svg">
    <path
        d="M11.9882 0C18.5529 0 24 5.44706 24 12C24 18.5647 18.5647 24 12 24C5.44706 24 0 18.5647 0 12C0 5.44706 5.43529 0 11.9882 0ZM11.9882 15.5059C11.2941 15.5059 10.7176 16.0471 10.7176 16.7294C10.7176 17.4 11.3059 17.9529 11.9882 17.9529C12.6706 17.9529 13.2588 17.4118 13.2588 16.7294C13.2588 16.0353 12.6824 15.5059 11.9882 15.5059ZM11.9765 5.94118C11.3412 5.94118 10.8941 6.37647 10.9059 6.97647L11.0588 13.2C11.0706 13.8 11.4 14.1294 11.9882 14.1294C12.5529 14.1294 12.8824 13.8118 12.8941 13.2L13.0588 6.98823C13.0706 6.38824 12.6 5.94118 11.9765 5.94118Z"
        fill="#FF3B30" />
</svg>
