<svg width="334" height="264" viewBox="0 0 334 264" fill="none" xmlns="http://www.w3.org/2000/svg">
<path d="M166.891 262.993H38.0124C15.1245 262.993 0 247.854 0 224.966C0 162.878 0 100.791 0 38.7035C0 15.8453 15.1543 0.735741 38.0571 0.735741C56.6834 0.735741 75.3096 0.735741 93.9358 0.735741C98.9109 0.603801 103.861 1.48263 108.487 3.31905C113.112 5.15547 117.317 7.91129 120.847 11.4197C126.629 17.0523 132.351 22.7445 138.341 28.1536C139.95 29.5485 141.981 30.3619 144.107 30.4632C195.019 30.5824 245.931 30.6172 296.843 30.5675C316.124 30.5675 330.578 42.9651 333.469 61.8596C333.738 63.9543 333.842 66.0667 333.782 68.1776C333.782 120.589 333.782 172.991 333.782 225.383C333.782 247.735 318.538 263.038 296.157 263.038L166.891 262.993Z" fill="#818C99"/>
<path d="M198.894 145.17C212.889 145.17 224.334 132.946 224.334 117.37C224.334 102.229 212.765 90.1288 198.894 90.1288C185.024 90.1288 173.392 102.353 173.454 117.432C173.454 132.946 184.899 145.17 198.894 145.17ZM237.147 203.376C248.157 203.376 251.827 199.777 251.827 193.634C251.827 177.748 231.114 156.03 198.894 156.03C166.612 156.03 145.962 177.748 145.962 193.634C145.962 199.777 149.632 203.376 160.641 203.376H237.147Z" fill="white"/>
<path opacity="0.6" d="M126.556 146.597C138.747 146.597 148.699 135.862 148.699 122.334C148.699 109.117 138.622 98.6301 126.556 98.6301C114.489 98.6301 104.35 109.241 104.35 122.397C104.412 135.862 114.364 146.597 126.556 146.597ZM138.436 203.376C131.532 193.696 137.752 175.08 152.742 163.042C146.086 158.946 137.13 155.905 126.556 155.905C99.1876 155.905 80.4653 176.011 80.4653 192.269C80.4653 199.281 83.6375 203.376 92.8432 203.376H138.436Z" fill="white"/>
</svg>
